<svg xmlns="http://www.w3.org/2000/svg" xmlns:xlink="http://www.w3.org/1999/xlink" width="16" height="20" version="1.1" viewBox="0 0 16 20"><title>icon: generation failed</title><defs><polygon id="path-1" points="0 0 16 0 16 20 0 20"/><polygon id="path-3" points="0 20 16 20 16 0 0 0"/></defs><g id="pub.dev" fill="none" fill-rule="evenodd" stroke="none" stroke-width="1"><g id="detail---versions-03" transform="translate(-865.000000, -582.000000)"><g id="item-copy-2" transform="translate(189.000000, 577.000000)"><g id="icon:-generation-failed" transform="translate(676.000000, 5.000000)"><polygon id="Fill-1" fill="#000" points="4 12 12 12 12 10 4 10"/><g id="Group-8"><g id="Group-4"><mask id="mask-2" fill="#fff"><use xlink:href="#path-1"/></mask><path id="Fill-2" fill="#000" d="M13.9998,9 L13.9998,18 L1.9998,18 L1.9998,2 L6.9998,2 L6.9998,0 L1.9998,0 C0.8998,0 -0.0002,0.9 -0.0002,2 L-0.0002,18 C-0.0002,19.1 0.8898,20 1.9898,20 L13.9998,20 C15.0998,20 15.9998,19.1 15.9998,18 L15.9998,9 L13.9998,9 Z" mask="url(#mask-2)"/></g><mask id="mask-4" fill="#fff"><use xlink:href="#path-3"/></mask><polygon id="Fill-5" fill="#000" points="4 16 12 16 12 14 4 14" mask="url(#mask-4)"/><polygon id="Fill-7" fill="#000" points="16 1.492 14.509 0 12.313 2.196 10.118 0 8.626 1.492 10.821 3.687 8.626 5.883 10.118 7.374 12.313 5.179 14.509 7.374 16 5.883 13.805 3.687" mask="url(#mask-4)"/></g></g></g></g></g></svg>